<svg version="1.1" id="Layer_1" xmlns="http://www.w3.org/2000/svg" xmlns:xlink="http://www.w3.org/1999/xlink" x="0px" y="0px"
	 width="50%" viewBox="0 0 1182 591" enable-background="new 0 0 1182 591" xml:space="preserve">
<path fill="#FFFFFF" opacity="1.000000" stroke="none" 
	d="
M702.000000,592.000000 
	C468.000000,592.000000 234.500031,592.000000 1.000031,592.000000 
	C1.000021,395.000031 1.000021,198.000046 1.000010,1.000058 
	C394.999969,1.000039 788.999939,1.000039 1183.000000,1.000019 
	C1183.000000,197.999939 1183.000000,394.999878 1183.000000,591.999878 
	C1022.833313,592.000000 862.666687,592.000000 702.000000,592.000000 
M209.328049,191.247162 
	C204.287842,201.024750 199.247620,210.802338 194.076279,220.834305 
	C200.131073,220.834305 205.566986,220.834305 211.927628,220.968735 
	C216.952698,220.924133 221.977753,220.879532 227.931015,220.969727 
	C236.955139,220.924789 245.979248,220.879868 255.931503,220.969681 
	C266.288818,220.924271 276.646118,220.878845 287.931458,220.968948 
	C298.287903,220.924088 308.644379,220.879227 319.929230,220.971390 
	C329.953064,220.925644 339.976868,220.879898 350.929108,220.971466 
	C360.619507,220.925491 370.309937,220.879501 380.928772,220.971176 
	C390.286652,220.925064 399.644562,220.878952 409.930450,220.969925 
	C421.288666,220.924316 432.646881,220.878708 444.933289,220.967316 
	C456.290344,220.922714 467.647430,220.878098 479.932220,220.969879 
	C486.622864,220.924408 493.313507,220.878952 500.895721,220.971085 
	C502.718140,220.979965 504.546783,221.089767 506.361664,220.977051 
	C510.329224,220.730591 511.274933,222.189194 509.651825,225.864502 
	C507.502747,230.730759 505.508514,235.680801 503.769379,240.706131 
	C502.904419,243.205460 501.709808,244.542267 498.076904,244.022995 
	C492.052765,244.070404 486.028625,244.117813 479.076660,244.020157 
	C469.719177,244.068710 460.361664,244.117264 450.076294,244.021729 
	C439.718140,244.070755 429.359955,244.119797 418.074005,244.026428 
	C410.049316,244.073380 402.024658,244.120331 393.110382,244.028610 
	C389.055084,244.034943 384.501495,242.643585 383.386047,248.967987 
	C382.830688,252.116943 381.144806,255.058075 380.051514,258.122192 
	C376.735626,267.415466 373.459351,276.722900 369.812592,286.694580 
	C360.138580,313.219727 350.464569,339.744843 340.585480,366.832245 
	C351.493011,366.832245 361.747375,366.832245 372.917999,366.969818 
	C376.514343,366.969818 380.110687,366.969818 383.128845,366.969818 
	C387.269806,355.588928 391.188873,344.817810 395.747009,333.658966 
	C401.648651,317.183899 407.550293,300.708801 413.480347,284.154510 
	C415.384613,284.042999 417.193207,283.937103 419.930023,283.968445 
	C430.288086,283.923706 440.646118,283.878967 451.932343,283.969971 
	C461.289734,283.924896 470.647095,283.879852 480.931763,283.970917 
	C486.955902,283.924713 492.980042,283.878510 499.880585,283.970551 
	C508.105011,284.143433 515.658508,281.933441 523.182434,277.212433 
	C526.008057,275.062347 529.221985,273.270050 531.590820,270.699097 
	C540.875305,260.622559 543.749023,247.469894 548.760254,234.669159 
	C549.036255,233.749115 549.336914,232.835617 549.584595,231.908020 
	C552.518188,220.923676 558.666199,211.010941 558.299194,198.847656 
	C558.034607,190.078064 554.656372,185.101837 546.153809,182.015564 
	C537.770142,181.732010 529.386475,181.448456 520.075012,181.021271 
	C513.384766,181.069687 506.694458,181.118103 499.076294,181.022110 
	C492.385681,181.070251 485.695099,181.118378 478.076691,181.020935 
	C466.719513,181.069595 455.362335,181.118256 443.077332,181.021561 
	C431.719025,181.070084 420.360748,181.118622 408.074127,181.025635 
	C398.716187,181.072586 389.358276,181.119537 379.072388,181.026413 
	C369.381836,181.072891 359.691284,181.119370 349.072693,181.026260 
	C339.048737,181.072723 329.024780,181.119186 318.072754,181.026138 
	C307.716309,181.072952 297.359833,181.119751 286.074890,181.025635 
	C275.717712,181.072113 265.360535,181.118591 254.074661,181.025528 
	C245.050705,181.072052 236.026764,181.118561 226.091873,181.027069 
	C217.840500,179.197632 212.516632,182.318329 210.152588,190.449783 
	C210.107498,190.604935 210.017197,190.746948 209.328049,191.247162 
M921.500000,181.000000 
	C808.033630,181.000000 694.567322,181.000000 581.100952,181.000000 
	C592.433228,191.946304 589.692688,203.735184 584.719910,216.000000 
	C587.230408,216.000000 589.050903,216.000000 590.871399,216.000000 
	C612.365540,216.000000 633.859741,216.000000 655.353882,216.000000 
	C761.158569,216.000000 866.963196,215.974304 972.767761,216.091080 
	C977.135010,216.095901 979.049805,214.881775 980.343140,210.543030 
	C982.700500,202.634964 986.056213,195.028198 988.859070,187.246613 
	C989.527405,185.391159 989.658447,183.342163 990.110413,181.000000 
	C967.122314,181.000000 944.811157,181.000000 921.500000,181.000000 
M542.995728,295.587341 
	C538.177612,308.291199 536.646423,321.482483 538.116882,334.888031 
	C538.989746,342.845398 542.511536,350.146240 548.837952,355.139069 
	C561.017700,364.751434 575.329590,366.324341 590.009521,363.382294 
	C605.307312,360.316376 616.024536,350.582611 624.171082,337.633881 
	C625.096680,336.162750 627.165955,335.411255 629.676270,333.641174 
	C627.572327,351.622253 629.647339,359.829407 645.907104,364.112244 
	C656.074524,366.790344 666.945618,366.797241 677.652893,368.020111 
	C680.082214,356.971893 682.220642,347.246887 684.275330,337.902435 
	C678.124023,336.834106 672.779785,336.182892 667.584961,334.918365 
	C663.223206,333.856598 661.486145,329.846008 662.202881,326.135864 
	C665.003357,311.639404 668.422607,297.262909 671.584412,282.835815 
	C675.641235,264.324585 679.671631,245.807632 683.560059,227.995544 
	C672.136536,227.995544 660.796570,227.085556 649.670837,228.239960 
	C637.441406,229.508865 625.149475,231.785492 613.348938,235.218613 
	C593.346863,241.037811 575.465515,251.020569 561.028198,266.469971 
	C553.256775,274.786224 547.537415,284.393127 542.995728,295.587341 
M794.472351,285.998291 
	C782.038574,282.322693 769.558167,278.792938 757.212585,274.841827 
	C754.893738,274.099701 753.113403,271.674957 751.084534,270.026611 
	C752.854431,267.993805 754.265137,264.839447 756.460938,264.136108 
	C763.354187,261.928162 770.494385,259.536560 777.626953,259.223969 
	C793.841858,258.513397 810.109253,259.000000 826.927917,259.000000 
	C829.813477,249.077484 832.949463,238.294052 836.233765,227.000519 
	C828.325256,226.299973 820.998718,225.396912 813.646606,225.071243 
	C806.310303,224.746277 798.941895,225.198212 791.599121,224.957016 
	C777.696838,224.500351 764.054565,226.167831 750.755310,230.055618 
	C727.276062,236.919327 712.069275,251.537201 713.052368,278.578308 
	C713.427307,288.892426 718.880859,298.212677 729.766663,301.399445 
	C745.944458,306.135376 762.076904,311.036957 778.128906,316.179596 
	C780.672974,316.994598 784.600647,319.535614 784.524170,321.115753 
	C784.398926,323.702728 781.629028,326.250458 779.723633,328.612274 
	C779.094238,329.392365 777.727356,329.758850 776.633484,329.952698 
	C770.554138,331.029938 764.473450,332.677948 758.358582,332.842896 
	C748.779297,333.101288 739.152466,332.603821 729.583801,331.905792 
	C722.772705,331.408966 716.040649,329.882629 709.233459,329.234375 
	C707.907349,329.108032 705.538574,330.617798 705.112976,331.869904 
	C702.507202,339.537018 700.305908,347.342285 698.006409,355.112335 
	C697.196045,357.850586 696.488708,360.619293 695.460693,364.372925 
	C706.677612,365.291840 717.089844,366.452911 727.532898,366.910065 
	C737.179688,367.332367 746.859436,367.004761 756.524719,366.998810 
	C768.887634,366.991180 781.010193,365.080719 792.583435,360.891510 
	C807.171021,355.611206 818.924927,346.954529 822.620667,330.737030 
	C825.979370,315.998413 824.430725,302.468719 810.638916,293.331879 
	C805.966858,290.236755 800.426208,288.452728 794.472351,285.998291 
M902.454651,261.901154 
	C908.052124,260.934113 913.633118,259.265503 919.250244,259.133148 
	C935.311707,258.754639 951.387817,259.000000 967.688232,259.000000 
	C970.594849,248.927765 973.705444,238.148727 976.891846,227.106918 
	C970.189697,226.378418 963.862793,225.327927 957.505127,225.086685 
	C948.499512,224.744949 939.436157,224.497269 930.461304,225.123962 
	C918.561340,225.954895 906.583740,226.944656 894.895569,229.195663 
	C881.941589,231.690399 870.521118,237.898865 862.110535,248.475800 
	C855.002808,257.414337 853.677368,268.006744 853.943848,279.062866 
	C854.186462,289.129944 860.430786,298.238129 869.941589,301.091766 
	C885.308167,305.702393 900.578613,310.633545 915.886902,315.438049 
	C919.682373,316.629211 925.227722,316.777313 925.460938,321.516846 
	C925.731384,327.013428 919.910217,328.456787 915.815735,330.659485 
	C915.529541,330.813416 915.194031,330.891174 914.872009,330.960754 
	C898.843445,334.424194 882.778320,333.221466 866.704163,331.353668 
	C859.933350,330.566925 853.154785,329.846802 846.447510,329.103882 
	C842.942444,340.823975 839.535645,352.215759 835.907593,364.347137 
	C847.369446,365.258850 858.301697,366.365967 869.261902,366.921021 
	C877.239014,367.325012 885.254517,366.906128 893.250488,367.020477 
	C907.797424,367.228546 921.969849,365.076599 935.563049,359.922394 
	C943.526245,356.902954 950.696594,352.633789 956.084778,345.571381 
	C960.911194,339.245361 962.965637,332.356354 964.241150,324.557800 
	C966.584167,310.232025 961.756836,299.022491 949.642639,292.631775 
	C938.898621,286.963898 926.719055,283.968781 915.084900,280.056396 
	C908.947693,277.992523 902.513489,276.796722 896.412476,274.644501 
	C890.630493,272.604828 890.603149,268.470520 894.559265,265.970703 
	C896.845764,264.525909 899.277039,263.310364 902.454651,261.901154 
M203.499344,265.000977 
	C200.263016,271.134186 197.026688,277.267395 193.474075,284.000000 
	C208.633713,284.000000 222.786316,284.000000 236.938919,284.000000 
	C268.427643,284.000000 299.916504,284.036591 331.404633,283.902466 
	C333.160828,283.895020 336.020325,282.897522 336.492188,281.651276 
	C341.152161,269.343353 345.415649,256.885315 349.883636,244.208374 
	C304.548798,244.208374 259.459045,244.208374 214.532059,244.208374 
	C210.938980,251.034622 207.428391,257.704163 203.499344,265.000977 
M195.898682,363.411194 
	C195.251175,364.416199 194.603683,365.421173 193.837189,366.610870 
	C194.777298,366.821381 195.098618,366.956177 195.419983,366.956360 
	C230.880753,366.977203 266.341705,366.942719 301.802032,367.074677 
	C305.078735,367.086853 306.064575,365.319061 306.958984,362.885834 
	C309.206909,356.770203 311.548462,350.688263 313.732330,344.550049 
	C315.768463,338.827179 317.649780,333.049194 319.699158,327.000458 
	C285.466095,327.000458 251.840042,326.956573 218.215164,327.134918 
	C216.597305,327.143463 214.315964,328.735809 213.485489,330.226685 
	C207.514450,340.945892 201.838776,351.829681 195.898682,363.411194 
z"/>
<path fill="#0F75BC" opacity="1.000000" stroke="none" 
	d="
M922.000000,181.000000 
	C944.811157,181.000000 967.122314,181.000000 990.110413,181.000000 
	C989.658447,183.342163 989.527405,185.391159 988.859070,187.246613 
	C986.056213,195.028198 982.700500,202.634964 980.343140,210.543030 
	C979.049805,214.881775 977.135010,216.095901 972.767761,216.091080 
	C866.963196,215.974304 761.158569,216.000000 655.353882,216.000000 
	C633.859741,216.000000 612.365540,216.000000 590.871399,216.000000 
	C589.050903,216.000000 587.230408,216.000000 584.719910,216.000000 
	C589.692688,203.735184 592.433228,191.946304 581.100952,181.000000 
	C694.567322,181.000000 808.033630,181.000000 922.000000,181.000000 
z"/>
<path fill="#0F75BC" opacity="1.000000" stroke="none" 
	d="
M543.027222,295.190002 
	C547.537415,284.393127 553.256775,274.786224 561.028198,266.469971 
	C575.465515,251.020569 593.346863,241.037811 613.348938,235.218613 
	C625.149475,231.785492 637.441406,229.508865 649.670837,228.239960 
	C660.796570,227.085556 672.136536,227.995544 683.560059,227.995544 
	C679.671631,245.807632 675.641235,264.324585 671.584412,282.835815 
	C668.422607,297.262909 665.003357,311.639404 662.202881,326.135864 
	C661.486145,329.846008 663.223206,333.856598 667.584961,334.918365 
	C672.779785,336.182892 678.124023,336.834106 684.275330,337.902435 
	C682.220642,347.246887 680.082214,356.971893 677.652893,368.020111 
	C666.945618,366.797241 656.074524,366.790344 645.907104,364.112244 
	C629.647339,359.829407 627.572327,351.622253 629.676270,333.641174 
	C627.165955,335.411255 625.096680,336.162750 624.171082,337.633881 
	C616.024536,350.582611 605.307312,360.316376 590.009521,363.382294 
	C575.329590,366.324341 561.017700,364.751434 548.837952,355.139069 
	C542.511536,350.146240 538.989746,342.845398 538.116882,334.888031 
	C536.646423,321.482483 538.177612,308.291199 543.027222,295.190002 
M604.909790,326.589722 
	C615.855530,320.435760 623.789062,311.208221 628.320129,299.870544 
	C633.101440,287.906677 636.104065,275.231934 640.131531,262.057281 
	C637.203308,262.057281 635.510132,261.742737 633.978271,262.106873 
	C621.407837,265.095093 609.320679,269.371155 598.790833,277.072540 
	C584.179382,287.759186 574.515503,301.291595 574.994568,320.345673 
	C575.123474,325.476288 577.967529,328.546814 582.977539,330.070038 
	C590.651062,332.403046 597.329956,329.208954 604.909790,326.589722 
z"/>
<path fill="#0F75BC" opacity="1.000000" stroke="none" 
	d="
M794.877441,286.033905 
	C800.426208,288.452728 805.966858,290.236755 810.638916,293.331879 
	C824.430725,302.468719 825.979370,315.998413 822.620667,330.737030 
	C818.924927,346.954529 807.171021,355.611206 792.583435,360.891510 
	C781.010193,365.080719 768.887634,366.991180 756.524719,366.998810 
	C746.859436,367.004761 737.179688,367.332367 727.532898,366.910065 
	C717.089844,366.452911 706.677612,365.291840 695.460693,364.372925 
	C696.488708,360.619293 697.196045,357.850586 698.006409,355.112335 
	C700.305908,347.342285 702.507202,339.537018 705.112976,331.869904 
	C705.538574,330.617798 707.907349,329.108032 709.233459,329.234375 
	C716.040649,329.882629 722.772705,331.408966 729.583801,331.905792 
	C739.152466,332.603821 748.779297,333.101288 758.358582,332.842896 
	C764.473450,332.677948 770.554138,331.029938 776.633484,329.952698 
	C777.727356,329.758850 779.094238,329.392365 779.723633,328.612274 
	C781.629028,326.250458 784.398926,323.702728 784.524170,321.115753 
	C784.600647,319.535614 780.672974,316.994598 778.128906,316.179596 
	C762.076904,311.036957 745.944458,306.135376 729.766663,301.399445 
	C718.880859,298.212677 713.427307,288.892426 713.052368,278.578308 
	C712.069275,251.537201 727.276062,236.919327 750.755310,230.055618 
	C764.054565,226.167831 777.696838,224.500351 791.599121,224.957016 
	C798.941895,225.198212 806.310303,224.746277 813.646606,225.071243 
	C820.998718,225.396912 828.325256,226.299973 836.233765,227.000519 
	C832.949463,238.294052 829.813477,249.077484 826.927917,259.000000 
	C810.109253,259.000000 793.841858,258.513397 777.626953,259.223969 
	C770.494385,259.536560 763.354187,261.928162 756.460938,264.136108 
	C754.265137,264.839447 752.854431,267.993805 751.084534,270.026611 
	C753.113403,271.674957 754.893738,274.099701 757.212585,274.841827 
	C769.558167,278.792938 782.038574,282.322693 794.877441,286.033905 
z"/>
<path fill="#0F75BC" opacity="1.000000" stroke="none" 
	d="
M902.048950,261.946411 
	C899.277039,263.310364 896.845764,264.525909 894.559265,265.970703 
	C890.603149,268.470520 890.630493,272.604828 896.412476,274.644501 
	C902.513489,276.796722 908.947693,277.992523 915.084900,280.056396 
	C926.719055,283.968781 938.898621,286.963898 949.642639,292.631775 
	C961.756836,299.022491 966.584167,310.232025 964.241150,324.557800 
	C962.965637,332.356354 960.911194,339.245361 956.084778,345.571381 
	C950.696594,352.633789 943.526245,356.902954 935.563049,359.922394 
	C921.969849,365.076599 907.797424,367.228546 893.250488,367.020477 
	C885.254517,366.906128 877.239014,367.325012 869.261902,366.921021 
	C858.301697,366.365967 847.369446,365.258850 835.907593,364.347137 
	C839.535645,352.215759 842.942444,340.823975 846.447510,329.103882 
	C853.154785,329.846802 859.933350,330.566925 866.704163,331.353668 
	C882.778320,333.221466 898.843445,334.424194 914.872009,330.960754 
	C915.194031,330.891174 915.529541,330.813416 915.815735,330.659485 
	C919.910217,328.456787 925.731384,327.013428 925.460938,321.516846 
	C925.227722,316.777313 919.682373,316.629211 915.886902,315.438049 
	C900.578613,310.633545 885.308167,305.702393 869.941589,301.091766 
	C860.430786,298.238129 854.186462,289.129944 853.943848,279.062866 
	C853.677368,268.006744 855.002808,257.414337 862.110535,248.475800 
	C870.521118,237.898865 881.941589,231.690399 894.895569,229.195663 
	C906.583740,226.944656 918.561340,225.954895 930.461304,225.123962 
	C939.436157,224.497269 948.499512,224.744949 957.505127,225.086685 
	C963.862793,225.327927 970.189697,226.378418 976.891846,227.106918 
	C973.705444,238.148727 970.594849,248.927765 967.688232,259.000000 
	C951.387817,259.000000 935.311707,258.754639 919.250244,259.133148 
	C913.633118,259.265503 908.052124,260.934113 902.048950,261.946411 
z"/>
<path fill="#25AAE1" opacity="1.000000" stroke="none" 
	d="
M203.708572,264.687317 
	C207.428391,257.704163 210.938980,251.034622 214.532059,244.208374 
	C259.459045,244.208374 304.548798,244.208374 349.883636,244.208374 
	C345.415649,256.885315 341.152161,269.343353 336.492188,281.651276 
	C336.020325,282.897522 333.160828,283.895020 331.404633,283.902466 
	C299.916504,284.036591 268.427643,284.000000 236.938919,284.000000 
	C222.786316,284.000000 208.633713,284.000000 193.474075,284.000000 
	C197.026688,277.267395 200.263016,271.134186 203.708572,264.687317 
z"/>
<path fill="#25AAE1" opacity="1.000000" stroke="none" 
	d="
M195.984039,363.036224 
	C201.838776,351.829681 207.514450,340.945892 213.485489,330.226685 
	C214.315964,328.735809 216.597305,327.143463 218.215164,327.134918 
	C251.840042,326.956573 285.466095,327.000458 319.699158,327.000458 
	C317.649780,333.049194 315.768463,338.827179 313.732330,344.550049 
	C311.548462,350.688263 309.206909,356.770203 306.958984,362.885834 
	C306.064575,365.319061 305.078735,367.086853 301.802032,367.074677 
	C266.341705,366.942719 230.880753,366.977203 195.419983,366.956360 
	C195.098618,366.956177 194.777298,366.821381 193.837189,366.610870 
	C194.603683,365.421173 195.251175,364.416199 195.984039,363.036224 
z"/>
<path fill="#238DCD" opacity="1.000000" stroke="none" 
	d="
M395.107941,334.046692 
	C391.188873,344.817810 387.269806,355.588928 383.128845,366.969818 
	C380.110687,366.969818 376.514343,366.969818 372.459320,366.443665 
	C372.000427,341.209412 372.040894,316.501129 371.920776,291.793640 
	C371.911438,289.867920 370.778412,287.947662 370.167633,286.024841 
	C373.459351,276.722900 376.735626,267.415466 380.051514,258.122192 
	C381.144806,255.058075 382.830688,252.116943 383.386047,248.967987 
	C384.501495,242.643585 389.055084,244.034943 393.555176,244.555359 
	C394.000000,272.863617 393.978577,300.645142 394.047577,328.426453 
	C394.052216,330.300751 394.738617,332.173309 395.107941,334.046692 
z"/>
<path fill="#137ABF" opacity="1.000000" stroke="none" 
	d="
M521.002808,181.164902 
	C529.386475,181.448456 537.770142,181.732010 546.577332,182.547943 
	C547.000610,198.698929 546.966125,214.317703 547.048767,229.935852 
	C547.057800,231.641968 547.741028,233.344528 548.111572,235.048737 
	C543.749023,247.469894 540.875305,260.622559 531.590820,270.699097 
	C529.221985,273.270050 526.008057,275.062347 522.540100,277.057098 
	C521.598511,274.978088 521.041992,273.054901 521.038513,271.130707 
	C520.984497,241.142181 521.001892,211.153519 521.002808,181.164902 
z"/>
<path fill="#157CC1" opacity="1.000000" stroke="none" 
	d="
M520.538940,181.093079 
	C521.001892,211.153519 520.984497,241.142181 521.038513,271.130707 
	C521.041992,273.054901 521.598511,274.978088 522.251953,277.236847 
	C515.658508,281.933441 508.105011,284.143433 499.441040,283.443909 
	C499.002441,270.000732 499.003326,257.084229 499.004211,244.167725 
	C501.709808,244.542267 502.904419,243.205460 503.769379,240.706131 
	C505.508514,235.680801 507.502747,230.730759 509.651825,225.864502 
	C511.274933,222.189194 510.329224,220.730591 506.361664,220.977051 
	C504.546783,221.089767 502.718140,220.979965 500.448578,220.444672 
	C500.002350,207.001007 500.003265,194.083755 500.004181,181.166534 
	C506.694458,181.118103 513.384766,181.069687 520.538940,181.093079 
z"/>
<path fill="#248BCB" opacity="1.000000" stroke="none" 
	d="
M395.427490,333.852844 
	C394.738617,332.173309 394.052216,330.300751 394.047577,328.426453 
	C393.978577,300.645142 394.000000,272.863617 394.000000,244.624695 
	C402.024658,244.120331 410.049316,244.073380 418.537292,244.554962 
	C419.000977,257.999390 419.001373,270.915314 419.001770,283.831177 
	C417.193207,283.937103 415.384613,284.042999 413.480347,284.154510 
	C407.550293,300.708801 401.648651,317.183899 395.427490,333.852844 
z"/>
<path fill="#2488C9" opacity="1.000000" stroke="none" 
	d="
M444.005096,220.833099 
	C432.646881,220.878708 421.288666,220.924316 409.465607,220.443954 
	C409.001312,207.001038 409.001892,194.084091 409.002441,181.167145 
	C420.360748,181.118622 431.719025,181.070084 443.539581,181.551727 
	C444.002899,194.998962 444.003998,207.916031 444.005096,220.833099 
z"/>
<path fill="#1E83C6" opacity="1.000000" stroke="none" 
	d="
M444.469177,220.900208 
	C444.003998,207.916031 444.002899,194.998962 444.003479,181.624390 
	C455.362335,181.118256 466.719513,181.069595 478.539124,181.551315 
	C479.002502,194.998962 479.003479,207.916214 479.004486,220.833481 
	C467.647430,220.878098 456.290344,220.922714 444.469177,220.900208 
z"/>
<path fill="#2290CF" opacity="1.000000" stroke="none" 
	d="
M369.990112,286.359711 
	C370.778412,287.947662 371.911438,289.867920 371.920776,291.793640 
	C372.040894,316.501129 372.000427,341.209412 372.001221,366.374878 
	C361.747375,366.832245 351.493011,366.832245 340.585480,366.832245 
	C350.464569,339.744843 360.138580,313.219727 369.990112,286.359711 
z"/>
<path fill="#2386C8" opacity="1.000000" stroke="none" 
	d="
M419.465881,283.899841 
	C419.001373,270.915314 419.000977,257.999390 419.001190,244.626160 
	C429.359955,244.119797 439.718140,244.070755 450.538818,244.551346 
	C451.002289,257.998718 451.003235,270.916443 451.004181,283.834198 
	C440.646118,283.878967 430.288086,283.923706 419.465881,283.899841 
z"/>
<path fill="#209AD6" opacity="1.000000" stroke="none" 
	d="
M287.003387,181.166565 
	C297.359833,181.119751 307.716309,181.072952 318.536407,181.553375 
	C319.000336,194.998535 319.000580,207.916458 319.000824,220.834366 
	C308.644379,220.879227 298.287903,220.924088 287.466309,220.443787 
	C287.001892,207.001266 287.002625,194.083923 287.003387,181.166565 
z"/>
<path fill="#219FD9" opacity="1.000000" stroke="none" 
	d="
M286.539124,181.096100 
	C287.002625,194.083923 287.001892,207.001266 287.002289,220.376022 
	C276.646118,220.878845 266.288818,220.924271 255.466339,220.444824 
	C255.001907,207.001678 255.002625,194.083374 255.003342,181.165070 
	C265.360535,181.118591 275.717712,181.072113 286.539124,181.096100 
z"/>
<path fill="#2195D2" opacity="1.000000" stroke="none" 
	d="
M319.465027,220.902878 
	C319.000580,207.916458 319.000336,194.998535 319.000427,181.623138 
	C329.024780,181.119186 339.048737,181.072723 349.536377,181.553558 
	C350.000275,194.998611 350.000488,207.916382 350.000702,220.834152 
	C339.976868,220.879898 329.953064,220.925644 319.465027,220.902878 
z"/>
<path fill="#2290CF" opacity="1.000000" stroke="none" 
	d="
M350.464905,220.902802 
	C350.000488,207.916382 350.000275,194.998611 350.000366,181.623337 
	C359.691284,181.119370 369.381836,181.072891 379.536194,181.553925 
	C380.000092,194.998779 380.000214,207.916153 380.000336,220.833511 
	C370.309937,220.879501 360.619507,220.925491 350.464905,220.902802 
z"/>
<path fill="#238DCD" opacity="1.000000" stroke="none" 
	d="
M380.464539,220.902344 
	C380.000214,207.916153 380.000092,194.998779 380.000183,181.623962 
	C389.358276,181.119537 398.716187,181.072586 408.538269,181.096390 
	C409.001892,194.084091 409.001312,207.001038 409.001587,220.375427 
	C399.644562,220.878952 390.286652,220.925064 380.464539,220.902344 
z"/>
<path fill="#1E83C6" opacity="1.000000" stroke="none" 
	d="
M451.468262,283.902100 
	C451.003235,270.916443 451.002289,257.998718 451.002747,244.623383 
	C460.361664,244.117264 469.719177,244.068710 479.539062,244.550354 
	C480.002472,257.998627 480.003479,270.916718 480.004486,283.834808 
	C470.647095,283.879852 461.289734,283.924896 451.468262,283.902100 
z"/>
<path fill="#22A3DC" opacity="1.000000" stroke="none" 
	d="
M254.539001,181.095306 
	C255.002625,194.083374 255.001907,207.001678 255.002274,220.377472 
	C245.979248,220.879868 236.955139,220.924789 227.466003,220.444885 
	C227.001587,207.001724 227.002197,194.083405 227.002808,181.165070 
	C236.026764,181.118561 245.050705,181.072052 254.539001,181.095306 
z"/>
<path fill="#197FC3" opacity="1.000000" stroke="none" 
	d="
M479.468353,220.901672 
	C479.003479,207.916214 479.002502,194.998962 479.002991,181.624115 
	C485.695099,181.118378 492.385681,181.070251 499.540222,181.094315 
	C500.003265,194.083755 500.002350,207.001007 500.002808,220.375854 
	C493.313507,220.878952 486.622864,220.924408 479.468353,220.901672 
z"/>
<path fill="#197FC3" opacity="1.000000" stroke="none" 
	d="
M480.468140,283.902863 
	C480.003479,270.916718 480.002472,257.998627 480.002960,244.622894 
	C486.028625,244.117813 492.052765,244.070404 498.540558,244.095367 
	C499.003326,257.084229 499.002441,270.000732 499.002869,283.374756 
	C492.980042,283.878510 486.955902,283.924713 480.468140,283.902863 
z"/>
<path fill="#23A7DF" opacity="1.000000" stroke="none" 
	d="
M226.547333,181.096069 
	C227.002197,194.083405 227.001587,207.001724 227.001892,220.377502 
	C221.977753,220.879532 216.952698,220.924133 211.464279,220.444153 
	C211.000610,214.471619 211.133301,209.019348 210.957245,203.577087 
	C210.820282,199.343307 210.298645,195.121964 209.947998,190.895096 
	C210.017197,190.746948 210.107498,190.604935 210.152588,190.449783 
	C212.516632,182.318329 217.840500,179.197632 226.547333,181.096069 
z"/>
<path fill="#0F75BC" opacity="1.000000" stroke="none" 
	d="
M548.435913,234.858948 
	C547.741028,233.344528 547.057800,231.641968 547.048767,229.935852 
	C546.966125,214.317703 547.000610,198.698929 547.002075,182.622589 
	C554.656372,185.101837 558.034607,190.078064 558.299194,198.847656 
	C558.666199,211.010941 552.518188,220.923676 549.584595,231.908020 
	C549.336914,232.835617 549.036255,233.749115 548.435913,234.858948 
z"/>
<path fill="#25AAE1" opacity="1.000000" stroke="none" 
	d="
M209.638016,191.071136 
	C210.298645,195.121964 210.820282,199.343307 210.957245,203.577087 
	C211.133301,209.019348 211.000610,214.471619 211.001923,220.376938 
	C205.566986,220.834305 200.131073,220.834305 194.076279,220.834305 
	C199.247620,210.802338 204.287842,201.024750 209.638016,191.071136 
z"/>
<path fill="#FFFFFF" opacity="1.000000" stroke="none" 
	d="
M604.569824,326.773865 
	C597.329956,329.208954 590.651062,332.403046 582.977539,330.070038 
	C577.967529,328.546814 575.123474,325.476288 574.994568,320.345673 
	C574.515503,301.291595 584.179382,287.759186 598.790833,277.072540 
	C609.320679,269.371155 621.407837,265.095093 633.978271,262.106873 
	C635.510132,261.742737 637.203308,262.057281 640.131531,262.057281 
	C636.104065,275.231934 633.101440,287.906677 628.320129,299.870544 
	C623.789062,311.208221 615.855530,320.435760 604.569824,326.773865 
z"/>
</svg>